<?xml version="1.0" encoding="UTF-8" standalone="no"?>
<svg
   width="283.1962"
   height="69.500679"
   viewBox="0 -705 15646.492 3839.5834"
   version="1.1"
   id="svg12"
   sodipodi:docname="forcamla_logo.svg"
   inkscape:version="1.4.4 (dcaf3e7d9e, 2026-05-05)"
   xmlns:inkscape="http://www.inkscape.org/namespaces/inkscape"
   xmlns:sodipodi="http://sodipodi.sourceforge.net/DTD/sodipodi-0.dtd"
   xmlns:xlink="http://www.w3.org/1999/xlink"
   xmlns="http://www.w3.org/2000/svg"
   xmlns:svg="http://www.w3.org/2000/svg">
  <sodipodi:namedview
     id="namedview1"
     pagecolor="#ffffff"
     bordercolor="#000000"
     borderopacity="0.25"
     inkscape:showpageshadow="2"
     inkscape:pageopacity="0.0"
     inkscape:pagecheckerboard="0"
     inkscape:deskcolor="#d1d1d1"
     inkscape:zoom="6.2889262"
     inkscape:cx="141.5981"
     inkscape:cy="34.823115"
     inkscape:window-width="1920"
     inkscape:window-height="1022"
     inkscape:window-x="0"
     inkscape:window-y="0"
     inkscape:window-maximized="1"
     inkscape:current-layer="svg12" />
  <defs
     id="defs1">
    <path
       id="MJX-8-NCM-I-1D453"
       d="m 552,633 c 0,44 -43,72 -90,72 -62,0 -105,-40 -128,-119 -5,-18 -16,-69 -32,-153 h -65 c -22,0 -33,-1 -33,-22 0,-11 10,-16 31,-16 h 60 L 222,8 c -11,-57 -21,-99 -30,-127 -12,-37 -29,-56 -51,-56 -15,0 -27,4 -38,11 32,5 48,24 48,56 0,26 -13,39 -40,39 -34,0 -58,-30 -58,-64 0,-44 41,-72 88,-72 25,0 48,10 67,31 32,33 57,80 75,143 11,39 21,77 28,115 l 58,311 h 82 c 23,0 33,1 33,24 0,9 -10,14 -30,14 h -77 c 6,41 34,192 43,211 10,21 24,31 42,31 15,0 28,-4 39,-11 -31,-7 -47,-25 -47,-56 0,-26 13,-39 40,-39 34,0 58,30 58,64 z" />
    <path
       id="MJX-8-NCM-N-2061"
       d="" />
    <path
       id="MJX-8-NCM-SS-1D5C8"
       d="m 249,-11 c 63,0 115,23 157,68 42,45 63,100 63,163 0,64 -21,120 -62,168 -41,48 -94,73 -157,73 C 187,461 134,436 91,387 50,340 30,285 30,220 30,157 50,104 92,58 134,12 186,-11 249,-11 M 385,230 C 385,139 336,60 249,60 c -86,0 -135,79 -135,170 0,89 49,163 135,163 87,0 136,-72 136,-163 z" />
    <path
       id="MJX-8-NCM-SS-1D5CB"
       d="m 327,381 v 74 C 256,454 199,426 158,369 v 81 H 82 V 0 h 80 v 214 c 0,98 69,164 165,167 z" />
    <path
       id="MJX-8-NCM-SS-1D5BC"
       d="m 120,223 c 0,92 45,167 136,167 47,0 94,-15 141,-46 l 14,73 C 359,446 307,461 255,461 191,461 139,437 98,390 57,343 36,287 36,222 36,159 56,105 96,60 c 41,-47 93,-71 155,-71 59,0 114,17 164,52 l -7,76 C 360,79 308,60 252,60 168,60 120,135 120,223 Z" />
    <path
       id="MJX-8-NCM-SS-1D5BA"
       d="M 244,461 C 189,461 137,446 86,417 l 7,-74 c 49,35 99,52 151,52 53,0 81,-51 81,-108 V 249 C 206,245 54,215 54,115 54,46 100,-11 169,-11 235,-11 288,3 328,31 V 0 h 81 v 288 c 0,96 -69,173 -165,173 M 132,117 c 0,42 64,66 193,73 v -56 c 0,-51 -35,-77 -106,-77 -43,0 -87,20 -87,60 z" />
    <path
       id="MJX-8-NCM-SS-1D5C6"
       d="m 262,387 c 70,0 93,-33 93,-97 V 0 h 84 v 245 c 0,72 31,142 96,142 70,0 93,-33 93,-97 V 0 h 85 v 297 c 0,105 -46,158 -139,158 -61,0 -109,-25 -146,-76 -21,51 -63,76 -128,76 -55,0 -102,-23 -140,-68 v 63 H 81 V 0 h 85 v 245 c 0,73 30,142 96,142 z" />
    <path
       id="MJX-8-NCM-SS-1D5C5"
       d="m 79,0 h 79 V 694 H 79 Z" />
  </defs>
  <g
     stroke="#000000"
     fill="#000000"
     stroke-width="0"
     transform="matrix(4.219658,0,0,-4.219658,-223.64187,2269.8227)"
     id="g12"
     style="fill:#f25e0a;fill-opacity:1">
    <g
       data-mml-node="math"
       data-latex="f\mathsf{orcamla}"
       data-semantic-type="appl"
       data-semantic-role="simple function"
       data-semantic-annotation="depth:1"
       data-semantic-id="3"
       data-semantic-children="0,1"
       data-semantic-content="2,0"
       data-semantic-attributes="latex:f\mathsf{orcamla}"
       data-semantic-owns="0 2 1"
       aria-level="0"
       data-speech-node="true"
       data-semantic-structure="(3 0 2 1)"
       id="g11"
       style="fill:#f25e0a;fill-opacity:1">
      <g
         data-mml-node="mi"
         data-latex="f"
         data-semantic-type="identifier"
         data-semantic-role="simple function"
         data-semantic-font="italic"
         data-semantic-annotation="clearspeak:simple;nemeth:number;depth:2"
         data-semantic-id="0"
         data-semantic-parent="3"
         data-semantic-attributes="latex:f"
         data-semantic-operator="appl"
         aria-level="1"
         data-speech-node="true"
         id="g1"
         style="fill:#f25e0a;fill-opacity:1">
        <use
           data-c="1D453"
           xlink:href="#MJX-8-NCM-I-1D453"
           id="use1"
           style="fill:#f25e0a;fill-opacity:1" />
      </g>
      <g
         data-mml-node="mo"
         data-semantic-type="punctuation"
         data-semantic-role="application"
         data-semantic-annotation="nemeth:number;depth:2"
         data-semantic-id="2"
         data-semantic-parent="3"
         data-semantic-added="true"
         data-semantic-operator="appl"
         aria-level="1"
         data-speech-node="true"
         transform="translate(552)"
         id="g2"
         style="fill:#f25e0a;fill-opacity:1">
        <use
           data-c="2061"
           xlink:href="#MJX-8-NCM-N-2061"
           id="use2"
           style="fill:#f25e0a;fill-opacity:1" />
      </g>
      <g
         data-mml-node="TeXAtom"
         data-mjx-texclass="ORD"
         data-latex="\mathsf{orcamla}"
         transform="translate(552)"
         id="g10"
         style="fill:#f25e0a;fill-opacity:1">
        <g
           data-mml-node="mi"
           data-latex="orcamla"
           data-semantic-type="identifier"
           data-semantic-role="unknown"
           data-semantic-font="sans-serif"
           data-semantic-annotation="nemeth:number;depth:2"
           data-semantic-id="1"
           data-semantic-parent="3"
           data-semantic-attributes="latex:\mathsf{orcamla};texclass:ORD"
           aria-level="1"
           data-speech-node="true"
           id="g9"
           style="fill:#f25e0a;fill-opacity:1">
          <use
             data-c="1D5C8"
             xlink:href="#MJX-8-NCM-SS-1D5C8"
             id="use3"
             style="fill:#f25e0a;fill-opacity:1" />
          <use
             data-c="1D5CB"
             xlink:href="#MJX-8-NCM-SS-1D5CB"
             transform="translate(500)"
             id="use4"
             style="fill:#f25e0a;fill-opacity:1" />
          <use
             data-c="1D5BC"
             xlink:href="#MJX-8-NCM-SS-1D5BC"
             transform="translate(842)"
             id="use5"
             style="fill:#f25e0a;fill-opacity:1" />
          <use
             data-c="1D5BA"
             xlink:href="#MJX-8-NCM-SS-1D5BA"
             transform="translate(1286)"
             id="use6"
             style="fill:#f25e0a;fill-opacity:1" />
          <use
             data-c="1D5C6"
             xlink:href="#MJX-8-NCM-SS-1D5C6"
             transform="translate(1767)"
             id="use7"
             style="fill:#f25e0a;fill-opacity:1" />
          <use
             data-c="1D5C5"
             xlink:href="#MJX-8-NCM-SS-1D5C5"
             transform="translate(2561)"
             id="use8"
             style="fill:#f25e0a;fill-opacity:1" />
          <use
             data-c="1D5BA"
             xlink:href="#MJX-8-NCM-SS-1D5BA"
             transform="translate(2800)"
             id="use9"
             style="fill:#f25e0a;fill-opacity:1" />
        </g>
      </g>
    </g>
  </g>
</svg>
